<svg xmlns="http://www.w3.org/2000/svg" xmlns:xlink="http://www.w3.org/1999/xlink" version="1.1" x="0px" y="0px" viewBox="0 0 100 125" style="enable-background:new 0 0 100 100;" xml:space="preserve"><g><path d="M72,8H28c-5,0-9,4-9,9v66c0,5,4,9,9,9h44c5,0,9-4,9-9V17C81,12,77,8,72,8z M50,17.5c6.4,0,11.6,5.2,11.6,11.5   S56.4,40.5,50,40.5S38.4,35.3,38.4,29S43.6,17.5,50,17.5z M50,82.8c-11,0-19.9-8.9-19.9-19.8S39,43.2,50,43.2S69.9,52.1,69.9,63   S61,82.8,50,82.8z"/><ellipse cx="50" cy="29" rx="5.6" ry="5.6"/><path d="M50,53.3c-5.1,0-9.2,4.1-9.2,9.2c0,5.1,4.1,9.2,9.2,9.2s9.2-4.1,9.2-9.2C59.2,57.5,55.1,53.3,50,53.3z"/></g><text x="0" y="115" fill="#000000" font-size="5px" font-weight="bold" font-family="'Helvetica Neue', Helvetica, Arial-Unicode, Arial, Sans-serif">Created by Gagana</text><text x="0" y="120" fill="#000000" font-size="5px" font-weight="bold" font-family="'Helvetica Neue', Helvetica, Arial-Unicode, Arial, Sans-serif">from the Noun Project</text></svg>